# xmcd CD database file generated by LOLA_Freedb v0.9beta0
# 
# Track frame offsets:
#      150
#      19722
#      31838
#      54296
#      64583
#      76439
#      88814
#      102339
#      140211
#      151311
#      163946
#      175808
#      188639
# 
# Disc length: 2691 seconds
# 
# Revision: 0 
# Processed by: cddbd v1.5.2PL0 Copyright (c) Steve Scherf et al.
# Submitted via: LOLA_Freedb v0.9beta0
# 
DISCID=a40a810d
DTITLE=Muddy Waters - Blues Roots Vol. 8 - Muddy Waters
DYEAR=1900
DGENRE=
TTITLE0=Muddy Waters - Tiger In Your Tank
TTITLE1=Muddy Waters - I Can't Be Satisfied
TTITLE2=Muddy Waters - Country Boy
TTITLE3=Muddy Waters - Messin' With The Man
TTITLE4=Muddy Waters - Land Lady
TTITLE5=Muddy Waters - When The Eagle Flies
TTITLE6=Muddy Waters - County Jail
TTITLE7=Muddy Waters - Got My Mojo Workin', Pts. 1 and 2
TTITLE8=Muddy Waters - Kinfolk's Blues
TTITLE9=Muddy Waters - Love Affair
TTITLE10=Muddy Waters - Memphis Blues (Goin' Back To M.)
TTITLE11=Muddy Waters - Woman Wanted
TTITLE12=Muddy Waters - Put Me On Your Lay Away Plan
EXTD=LP
EXTT0=
EXTT1=
EXTT2=
EXTT3=
EXTT4=
EXTT5=
EXTT6=
EXTT7=
EXTT8=
EXTT9=
EXTT10=
EXTT11=
EXTT12=
PLAYORDER=
